<?xml version="1.0" encoding="utf-8"?>
<COLLADA xmlns="http://www.collada.org/2005/11/COLLADASchema" version="1.4.1">
  <asset>
    <contributor>
      <author>Blender User</author>
      <authoring_tool>Blender 2.71.0 commit date:2014-06-12, commit time:18:39, hash:169c95b</authoring_tool>
    </contributor>
    <created>2015-12-22T18:44:30</created>
    <modified>2015-12-22T18:44:30</modified>
    <unit name="meter" meter="1"/>
    <up_axis>Z_UP</up_axis>
  </asset>
  <library_images/>
  <library_effects>
    <effect id="Material-effect">
      <profile_COMMON>
        <technique sid="common">
          <phong>
            <emission>
              <color sid="emission">0 0 0 1</color>
            </emission>
            <ambient>
              <color sid="ambient">0 0 0 1</color>
            </ambient>
            <diffuse>
              <color sid="diffuse">0.003094902 0.6399998 0 1</color>
            </diffuse>
            <specular>
              <color sid="specular">0.5 0.5 0.5 1</color>
            </specular>
            <shininess>
              <float sid="shininess">50</float>
            </shininess>
            <index_of_refraction>
              <float sid="index_of_refraction">1</float>
            </index_of_refraction>
          </phong>
        </technique>
        <extra>
          <technique profile="GOOGLEEARTH">
            <double_sided>1</double_sided>
          </technique>
        </extra>
      </profile_COMMON>
      <extra><technique profile="MAX3D"><double_sided>1</double_sided></technique></extra>
    </effect>
    <effect id="Material_001-effect">
      <profile_COMMON>
        <technique sid="common">
          <phong>
            <emission>
              <color sid="emission">0 0 0 1</color>
            </emission>
            <ambient>
              <color sid="ambient">0 0 0 1</color>
            </ambient>
            <diffuse>
              <color sid="diffuse">0 0 0 1</color>
            </diffuse>
            <specular>
              <color sid="specular">0.5 0.5 0.5 1</color>
            </specular>
            <shininess>
              <float sid="shininess">50</float>
            </shininess>
            <index_of_refraction>
              <float sid="index_of_refraction">1</float>
            </index_of_refraction>
          </phong>
        </technique>
      </profile_COMMON>
    </effect>
    <effect id="Material_002-effect">
      <profile_COMMON>
        <technique sid="common">
          <phong>
            <emission>
              <color sid="emission">0 0 0 1</color>
            </emission>
            <ambient>
              <color sid="ambient">0 0 0 1</color>
            </ambient>
            <diffuse>
              <color sid="diffuse">0.6399998 0 0.004058756 1</color>
            </diffuse>
            <specular>
              <color sid="specular">0.5 0.5 0.5 1</color>
            </specular>
            <shininess>
              <float sid="shininess">50</float>
            </shininess>
            <index_of_refraction>
              <float sid="index_of_refraction">1</float>
            </index_of_refraction>
          </phong>
        </technique>
      </profile_COMMON>
    </effect>
    <effect id="Material_003-effect">
      <profile_COMMON>
        <technique sid="common">
          <phong>
            <emission>
              <color sid="emission">0 0 0 1</color>
            </emission>
            <ambient>
              <color sid="ambient">0 0 0 1</color>
            </ambient>
            <diffuse>
              <color sid="diffuse">0.6399998 0.00227907 0 1</color>
            </diffuse>
            <specular>
              <color sid="specular">0.5 0.5 0.5 1</color>
            </specular>
            <shininess>
              <float sid="shininess">50</float>
            </shininess>
            <index_of_refraction>
              <float sid="index_of_refraction">1</float>
            </index_of_refraction>
          </phong>
        </technique>
      </profile_COMMON>
    </effect>
  </library_effects>
  <library_materials>
    <material id="Material-material" name="Material">
      <instance_effect url="#Material-effect"/>
    </material>
    <material id="Material_001-material" name="Material_001">
      <instance_effect url="#Material_001-effect"/>
    </material>
    <material id="Material_002-material" name="Material_002">
      <instance_effect url="#Material_002-effect"/>
    </material>
    <material id="Material_003-material" name="Material_003">
      <instance_effect url="#Material_003-effect"/>
    </material>
  </library_materials>
  <library_geometries>
    <geometry id="Cylinder-mesh" name="Cylinder">
      <mesh>
        <source id="Cylinder-mesh-positions">
          <float_array id="Cylinder-mesh-positions-array" count="192">0 1 -1 0 1 1 0.1950903 0.9807853 -1 0.1950903 0.9807853 1 0.3826835 0.9238795 -1 0.3826835 0.9238795 1 0.5555703 0.8314696 -1 0.5555703 0.8314696 1 0.7071068 0.7071068 -1 0.7071068 0.7071068 1 0.8314697 0.5555702 -1 0.8314697 0.5555702 1 0.9238795 0.3826834 -1 0.9238795 0.3826834 1 0.9807853 0.1950903 -1 0.9807853 0.1950903 1 1 0 -1 1 0 1 0.9807853 -0.1950902 -1 0.9807853 -0.1950902 1 0.9238796 -0.3826833 -1 0.9238796 -0.3826833 1 0.8314697 -0.5555702 -1 0.8314697 -0.5555702 1 0.7071068 -0.7071068 -1 0.7071068 -0.7071068 1 0.5555702 -0.8314697 -1 0.5555702 -0.8314697 1 0.3826833 -0.9238796 -1 0.3826833 -0.9238796 1 0.1950901 -0.9807853 -1 0.1950901 -0.9807853 1 -3.25841e-7 -1 -1 -3.25841e-7 -1 1 -0.1950907 -0.9807852 -1 -0.1950907 -0.9807852 1 -0.3826839 -0.9238793 -1 -0.3826839 -0.9238793 1 -0.5555707 -0.8314693 -1 -0.5555707 -0.8314693 1 -0.7071073 -0.7071064 -1 -0.7071073 -0.7071064 1 -0.83147 -0.5555697 -1 -0.83147 -0.5555697 1 -0.9238799 -0.3826827 -1 -0.9238799 -0.3826827 1 -0.9807854 -0.1950894 -1 -0.9807854 -0.1950894 1 -1 9.65599e-7 -1 -1 9.65599e-7 1 -0.9807851 0.1950913 -1 -0.9807851 0.1950913 1 -0.9238791 0.3826845 -1 -0.9238791 0.3826845 1 -0.8314689 0.5555713 -1 -0.8314689 0.5555713 1 -0.7071059 0.7071077 -1 -0.7071059 0.7071077 1 -0.5555691 0.8314704 -1 -0.5555691 0.8314704 1 -0.3826821 0.9238801 -1 -0.3826821 0.9238801 1 -0.1950888 0.9807856 -1 -0.1950888 0.9807856 1</float_array>
          <technique_common>
            <accessor source="#Cylinder-mesh-positions-array" count="64" stride="3">
              <param name="X" type="float"/>
              <param name="Y" type="float"/>
              <param name="Z" type="float"/>
            </accessor>
          </technique_common>
        </source>
        <source id="Cylinder-mesh-normals">
          <float_array id="Cylinder-mesh-normals-array" count="372">0.09801727 0.9951847 0 0.2902846 0.9569404 0 0.4713967 0.8819213 0 0.6343933 0.7730104 0 0.7730104 0.6343933 0 0.8819214 0.4713965 0 0.9569403 0.2902847 0 0.9951847 0.09801727 0 0.9951847 -0.09801697 0 0.9569403 -0.2902847 0 0.8819214 -0.4713965 0 0.7730104 -0.6343933 0 0.6343933 -0.7730104 0 0.4713967 -0.8819213 0 0.2902843 -0.9569405 0 0.09801691 -0.9951848 0 -0.09801751 -0.9951847 0 -0.2902852 -0.9569402 0 -0.4713971 -0.8819211 0 -0.6343937 -0.7730101 0 -0.7730109 -0.6343927 0 -0.8819216 -0.4713961 0 -0.9569407 -0.2902837 0 -0.9951848 -0.09801632 0 -0.9951846 0.09801816 0 -0.95694 0.2902858 0 -0.8819208 0.4713976 0 -0.7730096 0.6343944 0 -0.6343924 0.7730112 0 -0.4713955 0.881922 0 -0.0980165 0.9951848 0 -0.0980165 0.9951848 0 -0.290283 0.9569408 0 0 0 -1 0.09801727 0.9951847 0 0.2902846 0.9569404 0 0.4713967 0.8819213 0 0.6343933 0.7730104 0 0.7730104 0.6343933 0 0.8819214 0.4713965 0 0.9569403 0.2902847 0 0.9951847 0.09801727 0 0.9951847 -0.09801697 0 0.9569403 -0.2902847 0 0.8819214 -0.4713965 0 0.7730104 -0.6343933 0 0.6343933 -0.7730104 0 0.4713967 -0.8819213 0 0.2902843 -0.9569405 0 0.09801691 -0.9951848 0 -0.09801751 -0.9951847 0 -0.2902852 -0.9569402 0 -0.4713971 -0.8819211 0 -0.6343937 -0.7730101 0 -0.7730109 -0.6343927 0 -0.8819216 -0.4713961 0 -0.9569407 -0.2902837 0 -0.9951848 -0.09801632 0 -0.9951846 0.09801816 0 -0.95694 0.2902858 0 -0.8819208 0.4713976 0 -0.7730096 0.6343944 0 -0.6343924 0.7730112 0 -0.4713955 0.881922 0 0 0 1 0 0 1 0 0 1 0 0 1 0 0 1 0 0 1 0 0 1 0 0 1 0 0 1 0 0 1 0 0 1 0 0 1 0 0 1 0 0 1 0 0 1 0 0 1 0 0 1 0 0 1 0 0 1 0 0 1 0 0 1 0 0 1 0 0 1 0 0 1 0 0 1 0 0 1 0 0 1 0 0 1 0 0 1 0 0 1 -0.290283 0.9569408 0 0 0 -1 0 0 -1 0 0 -1 0 0 -1 0 0 -1 0 0 -1 0 0 -1 0 0 -1 0 0 -1 0 0 -1 0 0 -1 0 0 -1 0 0 -1 0 0 -1 0 0 -1 0 0 -1 0 0 -1 0 0 -1 0 0 -1 0 0 -1 0 0 -1 0 0 -1 0 0 -1 0 0 -1 0 0 -1 0 0 -1 0 0 -1 0 0 -1 0 0 -1</float_array>
          <technique_common>
            <accessor source="#Cylinder-mesh-normals-array" count="124" stride="3">
              <param name="X" type="float"/>
              <param name="Y" type="float"/>
              <param name="Z" type="float"/>
            </accessor>
          </technique_common>
        </source>
        <vertices id="Cylinder-mesh-vertices">
          <input semantic="POSITION" source="#Cylinder-mesh-positions"/>
        </vertices>
        <polylist material="Material-material" count="124">
          <input semantic="VERTEX" source="#Cylinder-mesh-vertices" offset="0"/>
          <input semantic="NORMAL" source="#Cylinder-mesh-normals" offset="1"/>
          <vcount>3 3 3 3 3 3 3 3 3 3 3 3 3 3 3 3 3 3 3 3 3 3 3 3 3 3 3 3 3 3 3 3 3 3 3 3 3 3 3 3 3 3 3 3 3 3 3 3 3 3 3 3 3 3 3 3 3 3 3 3 3 3 3 3 3 3 3 3 3 3 3 3 3 3 3 3 3 3 3 3 3 3 3 3 3 3 3 3 3 3 3 3 3 3 3 3 3 3 3 3 3 3 3 3 3 3 3 3 3 3 3 3 3 3 3 3 3 3 3 3 3 3 3 3 </vcount>
          <p>0 0 1 0 3 0 2 1 3 1 5 1 4 2 5 2 7 2 6 3 7 3 9 3 8 4 9 4 11 4 10 5 11 5 13 5 12 6 13 6 15 6 14 7 15 7 17 7 16 8 17 8 19 8 18 9 19 9 21 9 20 10 21 10 23 10 22 11 23 11 25 11 24 12 25 12 27 12 26 13 27 13 29 13 28 14 29 14 31 14 30 15 31 15 33 15 32 16 33 16 35 16 34 17 35 17 37 17 36 18 37 18 39 18 38 19 39 19 41 19 40 20 41 20 43 20 42 21 43 21 45 21 44 22 45 22 47 22 46 23 47 23 49 23 48 24 49 24 51 24 50 25 51 25 53 25 52 26 53 26 55 26 54 27 55 27 57 27 56 28 57 28 59 28 58 29 59 29 61 29 0 30 62 30 1 30 62 31 63 31 1 31 60 32 61 32 63 32 36 33 38 33 42 33 2 34 0 34 3 34 4 35 2 35 5 35 6 36 4 36 7 36 8 37 6 37 9 37 10 38 8 38 11 38 12 39 10 39 13 39 14 40 12 40 15 40 16 41 14 41 17 41 18 42 16 42 19 42 20 43 18 43 21 43 22 44 20 44 23 44 24 45 22 45 25 45 26 46 24 46 27 46 28 47 26 47 29 47 30 48 28 48 31 48 32 49 30 49 33 49 34 50 32 50 35 50 36 51 34 51 37 51 38 52 36 52 39 52 40 53 38 53 41 53 42 54 40 54 43 54 44 55 42 55 45 55 46 56 44 56 47 56 48 57 46 57 49 57 50 58 48 58 51 58 52 59 50 59 53 59 54 60 52 60 55 60 56 61 54 61 57 61 58 62 56 62 59 62 60 63 58 63 61 63 1 64 63 64 3 64 25 65 21 65 47 65 57 66 63 66 59 66 57 67 55 67 53 67 49 68 47 68 51 68 47 69 53 69 51 69 63 70 61 70 59 70 37 71 43 71 39 71 33 72 31 72 35 72 31 73 37 73 35 73 25 74 31 74 27 74 25 75 23 75 21 75 21 76 19 76 17 76 31 77 29 77 27 77 13 78 11 78 9 78 9 79 7 79 5 79 37 80 25 80 47 80 53 81 63 81 57 81 45 82 43 82 47 82 43 83 37 83 47 83 21 84 15 84 63 84 53 85 47 85 63 85 15 86 13 86 63 86 13 87 9 87 5 87 43 88 41 88 39 88 47 89 21 89 63 89 25 90 37 90 31 90 5 91 63 91 13 91 21 92 17 92 15 92 63 93 5 93 3 93 62 94 60 94 63 94 62 95 0 95 2 95 6 96 8 96 4 96 10 97 12 97 8 97 4 98 8 98 12 98 18 99 20 99 16 99 62 100 20 100 36 100 26 101 30 101 24 101 26 102 28 102 30 102 30 103 32 103 34 103 46 104 52 104 56 104 38 105 40 105 42 105 42 106 44 106 46 106 46 107 48 107 50 107 36 108 46 108 56 108 58 109 62 109 56 109 58 110 60 110 62 110 62 111 36 111 56 111 16 112 62 112 2 112 14 113 4 113 12 113 30 114 36 114 24 114 2 115 4 115 16 115 46 116 36 116 42 116 24 117 36 117 20 117 22 118 24 118 20 118 34 119 36 119 30 119 46 120 50 120 52 120 52 121 54 121 56 121 4 122 14 122 16 122 16 123 20 123 62 123</p>
        </polylist>
      </mesh>
    </geometry>
    <geometry id="Cube_001-mesh" name="Cube.001">
      <mesh>
        <source id="Cube_001-mesh-positions">
          <float_array id="Cube_001-mesh-positions-array" count="24">-1 -1 -1 -1 1 -1 1 1 -1 1 -1 -1 -1 -1 1 -1 1 1 1 1 1 1 -1 1</float_array>
          <technique_common>
            <accessor source="#Cube_001-mesh-positions-array" count="8" stride="3">
              <param name="X" type="float"/>
              <param name="Y" type="float"/>
              <param name="Z" type="float"/>
            </accessor>
          </technique_common>
        </source>
        <source id="Cube_001-mesh-normals">
          <float_array id="Cube_001-mesh-normals-array" count="36">-1 0 0 0 1 0 1 0 0 0 -1 0 0 0 -1 0 0 1 -1 0 0 0 1 0 1 0 0 0 -1 0 0 0 -1 0 0 1</float_array>
          <technique_common>
            <accessor source="#Cube_001-mesh-normals-array" count="12" stride="3">
              <param name="X" type="float"/>
              <param name="Y" type="float"/>
              <param name="Z" type="float"/>
            </accessor>
          </technique_common>
        </source>
        <vertices id="Cube_001-mesh-vertices">
          <input semantic="POSITION" source="#Cube_001-mesh-positions"/>
        </vertices>
        <polylist material="Material_001-material" count="12">
          <input semantic="VERTEX" source="#Cube_001-mesh-vertices" offset="0"/>
          <input semantic="NORMAL" source="#Cube_001-mesh-normals" offset="1"/>
          <vcount>3 3 3 3 3 3 3 3 3 3 3 3 </vcount>
          <p>4 0 5 0 1 0 5 1 6 1 2 1 6 2 7 2 3 2 7 3 4 3 0 3 0 4 1 4 2 4 7 5 6 5 5 5 0 6 4 6 1 6 1 7 5 7 2 7 2 8 6 8 3 8 3 9 7 9 0 9 3 10 0 10 2 10 4 11 7 11 5 11</p>
        </polylist>
      </mesh>
    </geometry>
    <geometry id="Cube_002-mesh" name="Cube.002">
      <mesh>
        <source id="Cube_002-mesh-positions">
          <float_array id="Cube_002-mesh-positions-array" count="24">-1 -1 -1 -1 1 -1 1 1 -1 1 -1 -1 -1 -1 1 -1 1 1 1 1 1 1 -1 1</float_array>
          <technique_common>
            <accessor source="#Cube_002-mesh-positions-array" count="8" stride="3">
              <param name="X" type="float"/>
              <param name="Y" type="float"/>
              <param name="Z" type="float"/>
            </accessor>
          </technique_common>
        </source>
        <source id="Cube_002-mesh-normals">
          <float_array id="Cube_002-mesh-normals-array" count="36">-1 0 0 0 1 0 1 0 0 0 -1 0 0 0 -1 0 0 1 -1 0 0 0 1 0 1 0 0 0 -1 0 0 0 -1 0 0 1</float_array>
          <technique_common>
            <accessor source="#Cube_002-mesh-normals-array" count="12" stride="3">
              <param name="X" type="float"/>
              <param name="Y" type="float"/>
              <param name="Z" type="float"/>
            </accessor>
          </technique_common>
        </source>
        <vertices id="Cube_002-mesh-vertices">
          <input semantic="POSITION" source="#Cube_002-mesh-positions"/>
        </vertices>
        <polylist material="Material_002-material" count="12">
          <input semantic="VERTEX" source="#Cube_002-mesh-vertices" offset="0"/>
          <input semantic="NORMAL" source="#Cube_002-mesh-normals" offset="1"/>
          <vcount>3 3 3 3 3 3 3 3 3 3 3 3 </vcount>
          <p>4 0 5 0 1 0 5 1 6 1 2 1 6 2 7 2 3 2 7 3 4 3 0 3 0 4 1 4 2 4 7 5 6 5 5 5 0 6 4 6 1 6 1 7 5 7 2 7 2 8 6 8 3 8 3 9 7 9 0 9 3 10 0 10 2 10 4 11 7 11 5 11</p>
        </polylist>
      </mesh>
    </geometry>
    <geometry id="Cube_003-mesh" name="Cube.003">
      <mesh>
        <source id="Cube_003-mesh-positions">
          <float_array id="Cube_003-mesh-positions-array" count="24">-1 -1 -1 -1 1 -1 1 1 -1 1 -1 -1 -1 -1 1 -1 1 1 1 1 1 1 -1 1</float_array>
          <technique_common>
            <accessor source="#Cube_003-mesh-positions-array" count="8" stride="3">
              <param name="X" type="float"/>
              <param name="Y" type="float"/>
              <param name="Z" type="float"/>
            </accessor>
          </technique_common>
        </source>
        <source id="Cube_003-mesh-normals">
          <float_array id="Cube_003-mesh-normals-array" count="36">-1 0 0 0 1 0 1 0 0 0 -1 0 0 0 -1 0 0 1 -1 0 0 0 1 0 1 0 0 0 -1 0 0 0 -1 0 0 1</float_array>
          <technique_common>
            <accessor source="#Cube_003-mesh-normals-array" count="12" stride="3">
              <param name="X" type="float"/>
              <param name="Y" type="float"/>
              <param name="Z" type="float"/>
            </accessor>
          </technique_common>
        </source>
        <vertices id="Cube_003-mesh-vertices">
          <input semantic="POSITION" source="#Cube_003-mesh-positions"/>
        </vertices>
        <polylist material="Material_003-material" count="12">
          <input semantic="VERTEX" source="#Cube_003-mesh-vertices" offset="0"/>
          <input semantic="NORMAL" source="#Cube_003-mesh-normals" offset="1"/>
          <vcount>3 3 3 3 3 3 3 3 3 3 3 3 </vcount>
          <p>4 0 5 0 1 0 5 1 6 1 2 1 6 2 7 2 3 2 7 3 4 3 0 3 0 4 1 4 2 4 7 5 6 5 5 5 0 6 4 6 1 6 1 7 5 7 2 7 2 8 6 8 3 8 3 9 7 9 0 9 3 10 0 10 2 10 4 11 7 11 5 11</p>
        </polylist>
      </mesh>
    </geometry>
  </library_geometries>
  <library_controllers/>
  <library_visual_scenes>
    <visual_scene id="Scene" name="Scene">
      <node id="Cylinder" name="Cylinder" type="NODE">
        <matrix sid="transform">0.3 0 0 0 0 0.3 0 -2 0 0 1.5 1.5 0 0 0 1</matrix>
        <instance_geometry url="#Cylinder-mesh">
          <bind_material>
            <technique_common>
              <instance_material symbol="Material-material" target="#Material-material"/>
            </technique_common>
          </bind_material>
        </instance_geometry>
      </node>
      <node id="Cube_001" name="Cube_001" type="NODE">
        <matrix sid="transform">0.1146676 0 0 -2 0 1.29 0 0 0 0 0.75 0.75 0 0 0 1</matrix>
        <instance_geometry url="#Cube_001-mesh">
          <bind_material>
            <technique_common>
              <instance_material symbol="Material_001-material" target="#Material_001-material"/>
            </technique_common>
          </bind_material>
        </instance_geometry>
      </node>
      <node id="Cube" name="Cube" type="NODE">
        <matrix sid="transform">0.1 0 0 -2 0 0.1859294 0 -1.1 0 0 0.75 2.25 0 0 0 1</matrix>
        <instance_geometry url="#Cube_002-mesh">
          <bind_material>
            <technique_common>
              <instance_material symbol="Material_002-material" target="#Material_002-material"/>
            </technique_common>
          </bind_material>
        </instance_geometry>
      </node>
      <node id="Cube_002" name="Cube_002" type="NODE">
        <matrix sid="transform">0.1 0 0 -2 0 0.1859294 0 1.1 0 0 0.75 2.25 0 0 0 1</matrix>
        <instance_geometry url="#Cube_003-mesh">
          <bind_material>
            <technique_common>
              <instance_material symbol="Material_003-material" target="#Material_003-material"/>
            </technique_common>
          </bind_material>
        </instance_geometry>
      </node>
    </visual_scene>
  </library_visual_scenes>
  <scene>
    <instance_visual_scene url="#Scene"/>
  </scene>
</COLLADA>